# AST/ASF file generated using VICON BodyLanguage
# -----------------------------------------------
:version 1.10
:name VICON
:units
  mass 1.0
  length 0.45
  angle deg
:documentation
   .ast/.asf automatically generated from VICON data using
   VICON BodyBuilder and BodyLanguage model FoxedUp or BRILLIANT.MOD
:root
   order TX TY TZ RX RY RZ
   axis XYZ
   position 0 0 0  
   orientation 0 0 0 
:bonedata
  begin
     id 1 
     name lhipjoint
     direction 0.624716 -0.669793 0.401383 
     length 2.38238 
     axis 0 0 0  XYZ
  end
  begin
     id 2 
     name lfemur
     direction 0.34202 -0.939693 0  
     length 6.4574  
     axis 0 0 20  XYZ
    dof rx ry rz
    limits (-160.0 20.0)
           (-70.0 70.0)
           (-60.0 70.0)
  end
  begin
     id 3 
     name ltibia
     direction 0.34202 -0.939693 0   
     length 7.68739   
     axis 0 0 20   XYZ
    dof rx
    limits (-10.0 170.0)
  end
  begin
     id 4 
     name lfoot
     direction 0.0681309 -0.187188 0.979959   
     length 2.46615   
     axis -90 7.62852e-016 20   XYZ
    dof rx rz
    limits (-45.0 90.0)
           (-70.0 20.0)
  end
  begin
     id 5 
     name ltoes
     direction 1.53566e-011 -4.21819e-011 1   
     length 1.2376   
     axis -90 7.62852e-016 20   XYZ
    dof rx
    limits (-90.0 20.0)
  end
  begin
     id 6 
     name rhipjoint
     direction -0.644473 -0.655875 0.393043   
     length 2.43293  
     axis 0 0 0  XYZ 
  end
  begin
     id 7 
     name rfemur
     direction -0.34202 -0.939693 0   
     length 6.7025   
     axis 0 0 -20   XYZ
    dof rx ry rz
    limits (-160.0 20.0)
           (-70.0 70.0)
           (-70.0 60.0)
  end
  begin
     id 8 
     name rtibia
     direction -0.34202 -0.939693 0   
     length 7.80547   
     axis 0 0 -20   XYZ
    dof rx
    limits (-10.0 170.0)
 end
 begin
     id 9 
     name rfoot
     direction -0.0756734 -0.207911 0.975216   
     length 2.40315  
     axis -90 -7.62852e-016 -20   XYZ
    dof rx rz
    limits (-45.0 90.0)
           (-20.0 70.0)
  end
  begin
     id 10 
     name rtoes
     direction -1.5353e-011 -4.21879e-011 1   
     length 1.20477   
     axis -90 -7.62852e-016 -20   XYZ
    dof rx
    limits (-90.0 20.0)
  end
  begin
     id 11 
     name lowerback
     direction 0.0160353 0.987463 -0.157037   
     length 2.18572   
     axis 0 0 0   XYZ
    dof rx ry rz
    limits (-20.0 45.0)
           (-30.0 30.0)
           (-30.0 30.0)
  end
  begin
     id 12 
     name upperback
     direction -0.00499661 0.999756 0.0215076   
     length 2.18016   
     axis 0 0 0   XYZ
    dof rx ry rz
    limits (-20.0 45.0)
           (-30.0 30.0)
           (-30.0 30.0)
  end
  begin
     id 13 
     name thorax
     direction -0.00921346 0.995333 0.0960619   
     length 2.24923   
     axis 0 0 0   XYZ
    dof rx ry rz
    limits (-20.0 45.0)
           (-30.0 30.0)
           (-30.0 30.0)
  end
  begin
     id 14 
     name lowerneck
     direction 0.0274184 0.991181 0.12965   
     length 1.70911   
     axis 0 0 0   XYZ
    dof rx ry rz
    limits (-20.0 45.0)
           (-30.0 30.0)
           (-30.0 30.0)
  end
  begin
     id 15 
     name upperneck
     direction 0.0015627 0.999959 -0.00893559   
     length 1.69312   
     axis 0 0 0   XYZ
    dof rx ry rz
    limits (-20.0 45.0)
           (-30.0 30.0)
           (-30.0 30.0)
  end
  begin
     id 16
     name head
     direction -0.00230242 0.999856 -0.0168327  
     length 1.80241  
     axis 0 0 0   XYZ
    dof rx ry rz
    limits (-20.0 45.0)
           (-30.0 30.0)
           (-30.0 30.0)
  end
  begin
     id 17 
     name lclavicle
     direction 0.955523 0.290741 -0.0494489  
     length 3.84275  
     axis 0 0 0   XYZ
    dof ry rz
    limits (-20.0 10.0)
           (0.0 20.0)
  end
  begin
     id 18 
     name lhumerus
     direction 1 -4.48967e-011 -3.18382e-028   
     length 5.17714   
     axis 180 -30 -90   XYZ
    dof rx ry rz
    limits (-60.0 90.0)
           (-90.0 90.0)
           (-90.0 90.0)
  end
  begin
     id 19
     name lradius
     direction 1 -4.48968e-011 -2.22911e-027   
     length 3.43679   
     axis 180 -30 -90   XYZ
    dof rx
    limits (-10.0 170.0)
  end
  begin
     id 20
     name lwrist
     direction 1 -4.48951e-011 -6.32245e-027   
     length 1.7184   
     axis 3.57107e-015 90 90   XYZ
    dof ry
    limits (-180.0 0.0)
 end
  begin
     id 21 
     name lhand
     direction 1 -4.48924e-011 -1.26431e-026   
     length 0.573117   
     axis 8.06912e-015 90 90   XYZ
    dof rx rz
    limits (-90.0 90.0)
           (-45.0 45.0)
  end
  begin
     id 22 
     name lfingers
     direction 1 -4.49001e-011 -2.52965e-026   
     length 0.462062   
     axis 1.61381e-014 90 90   XYZ
    dof rx
    limits (0.0 90.0)
  end
  begin
     id 23
     name lthumb
     direction 0.707107 -6.35008e-011 0.707107   
     length 0.663431   
     axis -90 45 -1.62303e-014   XYZ
    dof rx rz
    limits (-45.0 45.0)
           (-45.0 45.0)
  end
  begin
     id 24 
     name rclavicle
     direction -0.963917 0.256881 -0.0698287   
     length 3.73057  
     axis 0 0 0   XYZ 
    dof ry rz
    limits (-10.0 20.0)
           (-20.0 0.0)
  end
  begin
     id 25 
     name rhumerus
     direction -1 -4.48962e-011 -2.73982e-027  
     length 5.23908   
     axis 180 30 90   XYZ
    dof rx ry rz
    limits (-90.0 60.0)
           (-90.0 90.0)
           (-90.0 90.0)
  end
  begin
     id 26 
     name rradius
     direction -1 -4.48968e-011 -4.33218e-027   
     length 3.46485   
     axis 180 30 90   XYZ
    dof rx
    limits (-10.0 170.0)
  end
  begin
     id 27 
     name rwrist
     direction -1 -4.48989e-011 -6.32372e-027   
     length 1.73243   
     axis 3.57107e-015 -90 -90   XYZ
    dof ry
    limits (-180.0 0.0)
  end
  begin
     id 28
     name rhand
     direction -1 -4.48948e-011 -1.26448e-026   
     length 0.608752   
     axis 8.06912e-015 -90 -90   XYZ
    dof rx rz
    limits (-90.0 90.0)
           (-45.0 45.0)
  end
  begin
     id 29
     name rfingers
     direction -1 -4.48962e-011 -2.52913e-026   
     length 0.490792   
     axis 1.61381e-014 -90 -90   XYZ
    dof rx
    limits (0.0 90.0)
  end
  begin
     id 30
     name rthumb
     direction -0.707107 -6.34878e-011 0.707107   
     length 0.704682   
     axis -90 -45 1.62303e-014   XYZ
    dof rx rz
    limits (-45.0 45.0)
           (-45.0 45.0)
  end
:hierarchy
  begin
    root lhipjoint rhipjoint lowerback
    lhipjoint lfemur
    lfemur ltibia
    ltibia lfoot
    lfoot ltoes
    rhipjoint rfemur
    rfemur rtibia
    rtibia rfoot
    rfoot rtoes
    lowerback upperback
    upperback thorax
    thorax lowerneck lclavicle rclavicle
    lowerneck upperneck
    upperneck head
    lclavicle lhumerus
    lhumerus lradius
    lradius lwrist
    lwrist lhand lthumb
    lhand lfingers
    rclavicle rhumerus
    rhumerus rradius
    rradius rwrist
    rwrist rhand rthumb
    rhand rfingers
  end

#!OML:ASF G:\JayActor3\Patient Classification 1\Patient 1\Session 6\male.ASF
:FULLY-SPECIFIED
:DEGREES
1
root 50.8943 15.6304 -28.4747 -3.42811 -55.1313 -3.03805
lowerback 3.94676 -0.560174 3.53744
upperback 4.93422 -0.790879 1.33255
thorax 2.84555 -0.340293 -0.599192
lowerneck -7.47815 0.171036 3.63993
upperneck 14.5995 -0.0837445 -1.71446
head 5.63399 -0.000767917 -1.14724
rclavicle -6.5102e-015 2.38542e-015
rhumerus -31.0732 -19.4818 -76.0799
rradius 28.5129
rwrist 4.53051
rhand -11.0562 -4.38211
rfingers 7.12502
rthumb 14.9664 -33.8213
lclavicle -6.5102e-015 2.38542e-015
lhumerus -30.2964 13.4736 80.0859
lradius 25.7254
lwrist 20.855
lhand -14.5639 9.45653
lfingers 7.12502
lthumb 11.5853 39.1163
rfemur -8.24399 -0.995332 24.9806
rtibia 36.4968
rfoot -25.7683 -12.3447
rtoes 2.9552
lfemur -4.2928 10.6462 -11.9332
ltibia 29.7507
lfoot -15.3267 5.51513
ltoes -4.99618
2
root 50.8953 15.6305 -28.4659 -3.5166 -55.1408 -2.92377
lowerback 3.91196 -0.528003 3.53815
upperback 4.8798 -0.744298 1.26116
thorax 2.80905 -0.315752 -0.673894
lowerneck -7.28485 0.123037 3.76944
upperneck 14.6053 -0.176889 -1.60982
head 5.60056 -0.0320636 -1.1419
rclavicle -8.22969e-014 -1.31198e-014
rhumerus -31.3385 -19.8366 -76.0076
rradius 28.5775
rwrist 4.60345
rhand -10.8622 -4.52325
rfingers 7.12502
rthumb 15.1533 -33.9485
lclavicle -8.22969e-014 -1.31198e-014
lhumerus -30.4464 13.5991 79.8261
lradius 25.1683
lwrist 20.6128
lhand -14.8931 10.1089
lfingers 7.12502
lthumb 11.2679 39.7863
rfemur -8.24889 -0.923055 24.8939
rtibia 36.5495
rfoot -25.8444 -12.3541
rtoes 3.01284
lfemur -4.13602 10.6892 -12.0429
ltibia 29.5393
lfoot -15.4305 5.5522
ltoes -4.72152
3
root 50.8977 15.6285 -28.4568 -3.54642 -55.1788 -2.85497
lowerback 3.82168 -0.485583 3.47769
upperback 4.89526 -0.693938 1.27887
thorax 2.87814 -0.291643 -0.623522
lowerneck -7.29606 0.0690716 3.82455
upperneck 14.6608 -0.261461 -1.59238
head 5.61757 -0.0689601 -1.15171
rclavicle -8.24956e-015 1.19271e-015
rhumerus -31.4119 -20.1002 -75.8982
rradius 28.5952
rwrist 4.62398
rhand -11.1914 -4.31055
rfingers 7.12502
rthumb 14.8361 -33.7594
lclavicle -8.24956e-015 1.19271e-015
lhumerus -30.4826 13.8244 79.6777
lradius 24.6259
lwrist 20.3393
lhand -13.9907 8.79903
lfingers 7.12502
lthumb 12.138 38.4269
rfemur -8.29659 -0.911323 24.813
rtibia 36.6029
rfoot -25.8919 -12.2925
rtoes 3.00026
lfemur -4.00979 10.6739 -12.1581
ltibia 29.3155
lfoot -15.4424 5.78906
ltoes -5.17503
4
root 50.8986 15.6285 -28.4481 -3.5474 -55.1886 -2.85037
lowerback 3.7814 -0.517974 3.42335
upperback 4.91903 -0.742415 1.32373
thorax 2.92468 -0.317943 -0.546839
lowerneck -7.39682 0.0890713 3.71303
upperneck 14.7426 -0.238867 -1.49457
head 5.66144 -0.056826 -1.10176
rclavicle -4.72611e-014 -2.26615e-014
rhumerus -31.3641 -20.1116 -75.8732
rradius 28.5498
rwrist 4.57044
rhand -11.2094 -4.25679
rfingers 7.12502
rthumb 14.8188 -33.7069
lclavicle -4.72611e-014 -2.26615e-014
lhumerus -30.5387 14.3079 79.4899
lradius 24.1375
lwrist 20.0473
lhand -14.0987 9.08632
lfingers 7.12502
lthumb 12.034 38.7203
rfemur -8.30737 -0.839621 24.7963
rtibia 36.6476
rfoot -25.9033 -12.3755
rtoes 2.78171
lfemur -3.85886 10.689 -12.1946
ltibia 29.0857
lfoot -15.5088 5.81526
ltoes -4.9727
5
root 50.9007 15.6282 -28.4392 -3.55785 -55.186 -2.81497
lowerback 3.73193 -0.536373 3.37237
upperback 4.92676 -0.771057 1.35044
thorax 2.96021 -0.333933 -0.491059
lowerneck -7.43982 0.0880194 3.66855
upperneck 14.8034 -0.247167 -1.42689
head 5.6879 -0.0583375 -1.07419
rclavicle -9.12422e-014 1.15295e-014
rhumerus -31.3888 -20.2055 -75.8261
rradius 28.541
rwrist 4.54091
rhand -11.2403 -4.24296
rfingers 7.12502
rthumb 14.789 -33.6953
lclavicle -9.12422e-014 1.15295e-014
lhumerus -30.6036 14.7339 79.2898
lradius 23.6353
lwrist 19.7302
lhand -13.972 9.00263
lfingers 7.12502
lthumb 12.1561 38.6295
rfemur -8.33841 -0.801122 24.7492
rtibia 36.6942
rfoot -25.9332 -12.4113
rtoes 2.65759
lfemur -3.72647 10.6493 -12.2728
ltibia 28.8491
lfoot -15.5691 5.9041
ltoes -4.82654
6
root 50.9034 15.6281 -28.4303 -3.56132 -55.1711 -2.7856
lowerback 3.69327 -0.564266 3.32616
upperback 4.93163 -0.811593 1.37527
thorax 2.98635 -0.355848 -0.439656
lowerneck -7.49322 0.0920009 3.61635
upperneck 14.8648 -0.248003 -1.35869
head 5.71656 -0.0565614 -1.04467
rclavicle 4.81059e-014 1.19271e-014
rhumerus -31.4125 -20.2805 -75.7933
rradius 28.53
rwrist 4.50012
rhand -11.2744 -4.23149
rfingers 7.12502
rthumb 14.7562 -33.6862
lclavicle 4.81059e-014 1.19271e-014
lhumerus -30.6722 15.1858 79.0773
lradius 23.1572
lwrist 19.4021
lhand -13.8728 8.95049
lfingers 7.12502
lthumb 12.2517 38.5716
rfemur -8.36792 -0.765079 24.7051
rtibia 36.7307
rfoot -25.9582 -12.4585
rtoes 2.54598
lfemur -3.59565 10.5643 -12.3543
ltibia 28.5996
lfoot -15.6305 5.99894
ltoes -4.60975
7
root 50.9064 15.6279 -28.4213 -3.5608 -55.1472 -2.76051
lowerback 3.66424 -0.590944 3.29226
upperback 4.92791 -0.849072 1.38867
thorax 2.99806 -0.375778 -0.406824
lowerneck -7.52968 0.0907527 3.57831
upperneck 14.9189 -0.257607 -1.28842
head 5.7398 -0.0581588 -1.01736
rclavicle -8.79622e-015 -5.56597e-015
rhumerus -31.4663 -20.3781 -75.7661
rradius 28.5234
rwrist 4.46614
rhand -11.2799 -4.23435
rfingers 7.12502
rthumb 14.7509 -33.6895
lclavicle -8.79622e-015 -5.56597e-015
lhumerus -30.7522 15.6076 78.8546
lradius 22.7095
lwrist 19.0818
lhand -13.8464 8.9981
lfingers 7.12502
lthumb 12.2772 38.6177
rfemur -8.39888 -0.726489 24.6645
rtibia 36.7695
rfoot -25.9908 -12.5136
rtoes 2.44313
lfemur -3.46534 10.439 -12.4388
ltibia 28.345
lfoot -15.699 6.10186
ltoes -4.33449
8
root 50.9099 15.6277 -28.4121 -3.5582 -55.1204 -2.73559
lowerback 3.64011 -0.611484 3.26802
upperback 4.91731 -0.877304 1.39192
thorax 2.99995 -0.390659 -0.389877
lowerneck -7.54907 0.0828944 3.55506
upperneck 14.9648 -0.277618 -1.21821
head 5.75734 -0.0640413 -0.99316
rclavicle 8.13526e-014 -7.95139e-016
rhumerus -31.5483 -20.5029 -75.7399
rradius 28.5228
rwrist 4.43834
rhand -11.2834 -4.24283
rfingers 7.12502
rthumb 14.7475 -33.6982
lclavicle 8.13526e-014 -7.95139e-016
lhumerus -30.8404 15.9909 78.6285
lradius 22.2944
lwrist 18.7698
lhand -13.8238 9.0372
lfingers 7.12502
lthumb 12.299 38.6555
rfemur -8.43278 -0.687187 24.6224
rtibia 36.8084
rfoot -26.0281 -12.5704
rtoes 2.35633
lfemur -3.33521 10.28 -12.5307
ltibia 28.0844
lfoot -15.7666 6.22799
ltoes -4.0805
9
root 50.9135 15.6272 -28.4028 -3.55581 -55.0968 -2.71091
lowerback 3.61758 -0.623921 3.24786
upperback 4.90424 -0.894237 1.38826
thorax 2.99858 -0.399632 -0.382406
lowerneck -7.55687 0.0668591 3.5436
upperneck 15.0023 -0.309641 -1.14979
head 5.76996 -0.0752703 -0.972246
rclavicle -4.92489e-014 1.03368e-014
rhumerus -31.6407 -20.6521 -75.7099
rradius 28.5157
rwrist 4.42498
rhand -11.2955 -4.22779
rfingers 7.12502
rthumb 14.7358 -33.684
lclavicle -4.92489e-014 1.03368e-014
lhumerus -30.9326 16.3338 78.4054
lradius 21.9154
lwrist 18.4776
lhand -13.8038 9.07195
lfingers 7.12502
lthumb 12.3182 38.6891
rfemur -8.46649 -0.640948 24.5806
rtibia 36.848
rfoot -26.0744 -12.6308
rtoes 2.27944
lfemur -3.20303 10.1201 -12.6235
ltibia 27.8217
lfoot -15.8251 6.36654
ltoes -3.9106
10
root 50.9172 15.6267 -28.3931 -3.55369 -55.0808 -2.68743
lowerback 3.59444 -0.628993 3.22735
upperback 4.89161 -0.901352 1.38352
thorax 2.99829 -0.403663 -0.375973
lowerneck -7.56366 0.0454185 3.53001
upperneck 15.0405 -0.349145 -1.07888
head 5.7825 -0.0900558 -0.950731
rclavicle -1.38652e-014 1.90833e-014
rhumerus -31.7301 -20.8023 -75.6776
rradius 28.5001
rwrist 4.40956
rhand -11.3039 -4.21754
rfingers 7.12502
rthumb 14.7277 -33.6744
lclavicle -1.38652e-014 1.90833e-014
lhumerus -31.027 16.649 78.1926
lradius 21.5728
lwrist 18.2021
lhand -13.7826 9.09531
lfingers 7.12502
lthumb 12.3387 38.7112
rfemur -8.49889 -0.590533 24.5382
rtibia 36.8882
rfoot -26.1175 -12.6834
rtoes 2.21366
lfemur -3.06699 9.96832 -12.7148
ltibia 27.5605
lfoot -15.8759 6.51249
ltoes -3.80051
